<svg xmlns="http://www.w3.org/2000/svg" viewBox="0 0 352.49 346.05"><defs><style>.cls-1{fill:#fff;}.cls-2{fill:#eca4c7;}</style></defs><g id="圖層_2" data-name="圖層 2"><g id="圖層_1-2" data-name="圖層 1"><path class="cls-1" d="M257.48,128.88c-.21-.28-.32-.57-.49-.61-1.68-.37-3.37-.69-5.06-1-20.76-4.1-41.51-8.21-61.14-16.5-18.06-7.62-32-19.63-40.9-37.38-7.68-15.37-12-31.8-15.67-48.43-1.84-8.28-3.45-16.62-5.16-24.93a20.8,20.8,0,0,0-1.72,5.65C123.23,26.42,119,47.14,110.8,66.8c-8.65,20.7-23.27,35.29-44,43.94-17.41,7.28-35.69,11.33-54,15.12-4.25.87-8.52,1.7-12.78,2.55a43,43,0,0,0,8.23,2.22c19.74,3.93,39.41,8.09,58.13,15.81,21,8.66,35.79,23.36,44.53,44.32,7.21,17.31,11.23,35.47,15,53.71.91,4.32,1.71,8.66,2.56,13a40.14,40.14,0,0,0,2.23-8.09c3.92-19.86,8-39.68,15.91-58.46,7.63-18.18,19.7-32.24,37.57-41.16,13.49-6.73,27.82-10.86,42.39-14.26C236.82,133.1,247.14,131.08,257.48,128.88Zm12.34,217.17.52-.06c.29-1.2.57-2.41.86-3.61,2.55-10.49,4.67-21.1,7.75-31.43,3.88-13,10.86-24.11,23-31.2,8.32-4.86,17.4-7.78,26.7-10,7.61-1.81,15.27-3.37,23.85-5.24-1.82-.48-2.68-.73-3.56-.94-10.6-2.55-21.32-4.71-31.78-7.76s-20-8.12-27.22-16.79c-7.32-8.82-11-19.33-13.79-30.18-2.2-8.53-3.91-17.19-6-26.46-.43,1.46-.72,2.31-.93,3.17-2.55,10.61-4.7,21.32-7.71,31.79-5.24,18.19-16.45,31.22-34.8,37.19-8.28,2.69-16.78,4.74-25.22,6.92-4.23,1.1-8.55,1.83-13.09,2.78,12,3.06,23.7,5.65,35.13,9,16.12,4.78,28.72,14.24,34.93,30.36,3.29,8.53,5.53,17.49,7.94,26.34C267.84,335.26,268.7,340.69,269.82,346.05Z"/><path class="cls-2" d="M257.48,128.88c-10.34,2.2-20.66,4.22-30.89,6.61-14.57,3.4-28.9,7.53-42.39,14.26-17.87,8.92-29.94,23-37.57,41.16-7.88,18.78-12,38.6-15.91,58.46a40.14,40.14,0,0,1-2.23,8.09c-.85-4.33-1.65-8.67-2.56-13-3.81-18.24-7.83-36.4-15-53.71-8.74-21-23.55-35.66-44.53-44.32C47.64,138.72,28,134.56,8.23,130.63A43,43,0,0,1,0,128.41c4.26-.85,8.53-1.68,12.78-2.55,18.36-3.79,36.64-7.84,54.05-15.12,20.7-8.65,35.32-23.24,44-43.94C119,47.14,123.23,26.42,127.34,5.65A20.8,20.8,0,0,1,129.06,0c1.71,8.31,3.32,16.65,5.16,24.93,3.71,16.63,8,33.06,15.67,48.43,8.88,17.75,22.84,29.76,40.9,37.38,19.63,8.29,40.38,12.4,61.14,16.5,1.69.34,3.38.66,5.06,1C257.16,128.31,257.27,128.6,257.48,128.88Z"/><path class="cls-2" d="M269.82,346.05c-1.12-5.36-2-10.79-3.42-16.07-2.41-8.85-4.65-17.81-7.94-26.34-6.21-16.12-18.81-25.58-34.93-30.36-11.43-3.39-23.11-6-35.13-9,4.54-.95,8.86-1.68,13.09-2.78,8.44-2.18,16.94-4.23,25.22-6.92,18.35-6,29.56-19,34.8-37.19,3-10.47,5.16-21.18,7.71-31.79.21-.86.5-1.71.93-3.17,2.08,9.27,3.79,17.93,6,26.46,2.79,10.85,6.47,21.36,13.79,30.18,7.19,8.67,16.72,13.74,27.22,16.79s21.18,5.21,31.78,7.76c.88.21,1.74.46,3.56.94-8.58,1.87-16.24,3.43-23.85,5.24-9.3,2.21-18.38,5.13-26.7,10-12.13,7.09-19.11,18.18-23,31.2-3.08,10.33-5.2,20.94-7.75,31.43-.29,1.2-.57,2.41-.86,3.61Z"/></g></g></svg>